<svg data-v-423bf9ae="" xmlns="http://www.w3.org/2000/svg" viewBox="0 0 392 104" class="iconLeft"><!----><!----><!----><g data-v-423bf9ae="" id="7a698f6f-842a-4972-88e6-3211f2d6ca28" fill="black" transform="matrix(5.952381134033203,0,0,5.952381134033203,112.14312744140625,2.988467216491699)"><path d="M4.00 13.09L4.00 13.09Q3.86 13.09 3.77 12.99L3.77 12.99L3.77 12.99Q3.67 12.89 3.67 12.75L3.67 12.75L3.67 9.60L0.35 3.74L0.35 3.74Q0.31 3.61 0.31 3.58L0.31 3.58L0.31 3.58Q0.31 3.46 0.40 3.37L0.40 3.37L0.40 3.37Q0.49 3.29 0.60 3.29L0.60 3.29L1.86 3.29L1.86 3.29Q2.13 3.29 2.30 3.56L2.30 3.56L4.65 7.62L7.01 3.56L7.01 3.56Q7.07 3.46 7.17 3.37L7.17 3.37L7.17 3.37Q7.28 3.29 7.43 3.29L7.43 3.29L8.69 3.29L8.69 3.29Q8.82 3.29 8.90 3.37L8.90 3.37L8.90 3.37Q8.99 3.46 8.99 3.58L8.99 3.58L8.99 3.58Q8.99 3.67 8.95 3.74L8.95 3.74L5.64 9.60L5.64 12.75L5.64 12.75Q5.64 12.91 5.54 13.00L5.54 13.00L5.54 13.00Q5.45 13.09 5.29 13.09L5.29 13.09L4.00 13.09ZM9.80 13.09L9.80 13.09Q9.67 13.09 9.59 13.01L9.59 13.01L9.59 13.01Q9.51 12.92 9.51 12.80L9.51 12.80L9.53 12.67L12.89 3.64L12.89 3.64Q13.03 3.29 13.40 3.29L13.40 3.29L14.94 3.29L14.94 3.29Q15.30 3.29 15.44 3.64L15.44 3.64L18.80 12.67L18.83 12.80L18.83 12.80Q18.83 12.92 18.74 13.01L18.74 13.01L18.74 13.01Q18.65 13.09 18.54 13.09L18.54 13.09L17.29 13.09L17.29 13.09Q17.00 13.09 16.88 12.82L16.88 12.82L16.24 11.13L12.10 11.13L11.45 12.82L11.45 12.82Q11.34 13.09 11.05 13.09L11.05 13.09L9.80 13.09ZM14.17 5.19L12.59 9.51L15.75 9.51L14.17 5.19ZM23.90 13.23L23.90 13.23Q21.97 13.23 20.91 12.24L20.91 12.24L20.91 12.24Q19.85 11.26 19.78 9.44L19.78 9.44L19.78 9.44Q19.77 9.06 19.77 8.20L19.77 8.20L19.77 8.20Q19.77 7.34 19.78 6.94L19.78 6.94L19.78 6.94Q19.85 5.15 20.92 4.15L20.92 4.15L20.92 4.15Q21.98 3.15 23.90 3.15L23.90 3.15L23.90 3.15Q25.14 3.15 26.07 3.58L26.07 3.58L26.07 3.58Q26.99 4.00 27.50 4.75L27.50 4.75L27.50 4.75Q28.01 5.49 28.04 6.41L28.04 6.41L28.04 6.44L28.04 6.44Q28.04 6.55 27.95 6.63L27.95 6.63L27.95 6.63Q27.86 6.71 27.75 6.71L27.75 6.71L26.39 6.71L26.39 6.71Q26.22 6.71 26.14 6.63L26.14 6.63L26.14 6.63Q26.05 6.55 26.00 6.36L26.00 6.36L26.00 6.36Q25.79 5.49 25.27 5.13L25.27 5.13L25.27 5.13Q24.75 4.77 23.90 4.77L23.90 4.77L23.90 4.77Q21.90 4.77 21.81 7.01L21.81 7.01L21.81 7.01Q21.80 7.39 21.80 8.18L21.80 8.18L21.80 8.18Q21.80 8.96 21.81 9.37L21.81 9.37L21.81 9.37Q21.90 11.61 23.90 11.61L23.90 11.61L23.90 11.61Q24.74 11.61 25.26 11.25L25.26 11.25L25.26 11.25Q25.79 10.89 26.00 10.02L26.00 10.02L26.00 10.02Q26.05 9.83 26.14 9.75L26.14 9.75L26.14 9.75Q26.22 9.67 26.39 9.67L26.39 9.67L27.75 9.67L27.75 9.67Q27.87 9.67 27.97 9.76L27.97 9.76L27.97 9.76Q28.06 9.84 28.04 9.97L28.04 9.97L28.04 9.97Q28.01 10.89 27.50 11.63L27.50 11.63L27.50 11.63Q26.99 12.38 26.07 12.80L26.07 12.80L26.07 12.80Q25.14 13.23 23.90 13.23L23.90 13.23ZM33.49 13.23L33.49 13.23Q31.56 13.23 30.50 12.24L30.50 12.24L30.50 12.24Q29.44 11.26 29.37 9.44L29.37 9.44L29.37 9.44Q29.36 9.06 29.36 8.20L29.36 8.20L29.36 8.20Q29.36 7.34 29.37 6.94L29.37 6.94L29.37 6.94Q29.44 5.15 30.51 4.15L30.51 4.15L30.51 4.15Q31.57 3.15 33.49 3.15L33.49 3.15L33.49 3.15Q34.73 3.15 35.66 3.58L35.66 3.58L35.66 3.58Q36.58 4.00 37.09 4.75L37.09 4.75L37.09 4.75Q37.60 5.49 37.63 6.41L37.63 6.41L37.63 6.44L37.63 6.44Q37.63 6.55 37.54 6.63L37.54 6.63L37.54 6.63Q37.45 6.71 37.34 6.71L37.34 6.71L35.98 6.71L35.98 6.71Q35.81 6.71 35.73 6.63L35.73 6.63L35.73 6.63Q35.64 6.55 35.59 6.36L35.59 6.36L35.59 6.36Q35.38 5.49 34.86 5.13L34.86 5.13L34.86 5.13Q34.34 4.77 33.49 4.77L33.49 4.77L33.49 4.77Q31.49 4.77 31.40 7.01L31.40 7.01L31.40 7.01Q31.39 7.39 31.39 8.18L31.39 8.18L31.39 8.18Q31.39 8.96 31.40 9.37L31.40 9.37L31.40 9.37Q31.49 11.61 33.49 11.61L33.49 11.61L33.49 11.61Q34.33 11.61 34.85 11.25L34.85 11.25L34.85 11.25Q35.38 10.89 35.59 10.02L35.59 10.02L35.59 10.02Q35.64 9.83 35.73 9.75L35.73 9.75L35.73 9.75Q35.81 9.67 35.98 9.67L35.98 9.67L37.34 9.67L37.34 9.67Q37.46 9.67 37.56 9.76L37.56 9.76L37.56 9.76Q37.65 9.84 37.63 9.97L37.63 9.97L37.63 9.97Q37.60 10.89 37.09 11.63L37.09 11.63L37.09 11.63Q36.58 12.38 35.66 12.80L35.66 12.80L35.66 12.80Q34.73 13.23 33.49 13.23L33.49 13.23ZM39.63 13.09L39.63 13.09Q39.49 13.09 39.40 12.99L39.40 12.99L39.40 12.99Q39.30 12.89 39.30 12.75L39.30 12.75L39.30 3.64L39.30 3.64Q39.30 3.49 39.39 3.39L39.39 3.39L39.39 3.39Q39.48 3.29 39.63 3.29L39.63 3.29L40.89 3.29L40.89 3.29Q41.05 3.29 41.15 3.39L41.15 3.39L41.15 3.39Q41.24 3.49 41.24 3.64L41.24 3.64L41.24 6.92L44.37 3.54L44.37 3.54Q44.58 3.29 44.91 3.29L44.91 3.29L46.34 3.29L46.34 3.29Q46.45 3.29 46.54 3.37L46.54 3.37L46.54 3.37Q46.63 3.46 46.63 3.58L46.63 3.58L46.63 3.58Q46.63 3.68 46.56 3.75L46.56 3.75L42.76 7.98L46.84 12.61L46.84 12.61Q46.90 12.71 46.90 12.80L46.90 12.80L46.90 12.80Q46.90 12.92 46.82 13.01L46.82 13.01L46.82 13.01Q46.73 13.09 46.62 13.09L46.62 13.09L45.15 13.09L45.15 13.09Q44.86 13.09 44.73 12.97L44.73 12.97L44.73 12.97Q44.60 12.85 44.59 12.84L44.59 12.84L41.24 9.14L41.24 12.75L41.24 12.75Q41.24 12.89 41.15 12.99L41.15 12.99L41.15 12.99Q41.05 13.09 40.89 13.09L40.89 13.09L39.63 13.09Z"></path></g><!----><g data-v-423bf9ae="" id="626a11cf-e1af-410f-af61-5eb5bd6e47d9" transform="matrix(1.072261095046997,0,0,1.072261095046997,-6.440258502960205,-1.8648920059204102)" stroke="none" fill="black"><path d="M92.639 35.129L52.219 2.456a3.175 3.175 0 0 0-2.406-.68c-.726-.005-1.446.206-2.031.68L7.36 35.129c-.781.632-1.22 1.595-1.185 2.599s.541 1.934 1.365 2.508l5.297 3.697v31.229c0 1.131.598 2.179 1.573 2.753l33.74 19.893c.009.005.02.008.03.013.167.096.349.159.531.224.083.029.16.076.245.099.236.062.481.09.727.096.03.001.06.013.09.013h.003c.052 0 .104-.018.156-.02.222-.012.444-.03.661-.088.077-.02.146-.064.223-.091.184-.063.371-.124.544-.223.007-.004.012-.011.02-.015.005-.004.012-.004.018-.008l33.737-19.893a3.193 3.193 0 0 0 1.573-2.753V44.25l5.752-4.015a3.194 3.194 0 0 0 .179-5.106zM52.986 56.553V11.296l32.328 26.132-32.328 19.125zm-6.391-44.919v44.938L14.686 37.428l31.909-25.794zm-.018 77.827L19.23 73.337V47.859l27.347 16.123v25.479zm33.737-16.124L52.969 89.461V63.982l27.346-16.123v25.478z"></path></g><!----></svg>